{"title":"WWE Friday Night Smackdown - 20th August 2010 - Xvid ][VAMPIRE R","uid":5777695,"size":782465024,"categoryP":"video","categoryS":"hd___tv_shows","magnet":"?xt=urn:btih:316819549d86100d7eb3c2189debf18799832ba7&amp;dn=WWE+Friday+Night+Smackdown+-+20th+August+2010+-+Xvid+%5D%5BVAMPIRE+R&amp;tr=udp%3A%2F%2Ftracker.openbittorrent.com%3A80&amp;tr=udp%3A%2F%2Fopen.demonii.com%3A1337&amp;tr=udp%3A%2F%2Ftracker.coppersurfer.tk%3A6969&amp;tr=udp%3A%2F%2Fexodus.desync.com%3A6969","seeders":0,"leechers":0,"uploader":"Vamp111","files":1,"time":1282317795,"description":"\n &lt;a href=&quot;\nhttp://i1022.photobucket.com/albums/af345/bhoottt/WWEFridayNightSmackdown-20thAugust2010-XvidVAMPIREROCKs_20100820-18381&quot; rel=&quot;nofollow&quot; target=&quot;_NEW&quot;&gt;\nhttp://i1022.photobucket.com/albums/af345/bhoottt/WWEFridayNightSmackdown-20thAugust2010-XvidVAMPIREROCKs_20100820-18381&lt;/a&gt;\n\n745.jpg &lt;a href=&quot;\nhttp://i1022.photobucket.com/albums/af345/bhoottt/WWEFridayNightSmackdown-20thAugust2010-XvidVAMPIREROCKs_20100820-18363&quot; rel=&quot;nofollow&quot; target=&quot;_NEW&quot;&gt;\nhttp://i1022.photobucket.com/albums/af345/bhoottt/WWEFridayNightSmackdown-20thAugust2010-XvidVAMPIREROCKs_20100820-18363&lt;/a&gt;\n\n017.jpg &lt;a href=&quot;\nhttp://i1022.photobucket.com/albums/af345/bhoottt/WWEFridayNightSmackdown-20thAugust2010-XvidVAMPIREROCKs_20100820-18355&quot; rel=&quot;nofollow&quot; target=&quot;_NEW&quot;&gt;\nhttp://i1022.photobucket.com/albums/af345/bhoottt/WWEFridayNightSmackdown-20thAugust2010-XvidVAMPIREROCKs_20100820-18355&lt;/a&gt;\n\n965.jpg &lt;a href=&quot;\nhttp://i1022.photobucket.com/albums/af345/bhoottt/WWEFridayNightSmackdown-20thAugust2010-XvidVAMPIREROCKs_20100820-18345&quot; rel=&quot;nofollow&quot; target=&quot;_NEW&quot;&gt;\nhttp://i1022.photobucket.com/albums/af345/bhoottt/WWEFridayNightSmackdown-20thAugust2010-XvidVAMPIREROCKs_20100820-18345&lt;/a&gt;\n\n396.jpg &lt;a href=&quot;\nhttp://i1022.photobucket.com/albums/af345/bhoottt/WWEFridayNightSmackdown-20thAugust2010-XvidVAMPIREROCKs_20100820-18341&quot; rel=&quot;nofollow&quot; target=&quot;_NEW&quot;&gt;\nhttp://i1022.photobucket.com/albums/af345/bhoottt/WWEFridayNightSmackdown-20thAugust2010-XvidVAMPIREROCKs_20100820-18341&lt;/a&gt;\n\n295.jpg &lt;a href=&quot;\nhttp://i1022.photobucket.com/albums/af345/bhoottt/WWEFridayNightSmackdown-20thAugust2010-XvidVAMPIREROCKs_20100820-18383&quot; rel=&quot;nofollow&quot; target=&quot;_NEW&quot;&gt;\nhttp://i1022.photobucket.com/albums/af345/bhoottt/WWEFridayNightSmackdown-20thAugust2010-XvidVAMPIREROCKs_20100820-18383&lt;/a&gt;\n\n343.jpg\n\nVideo\nID                               : 0\nFormat                           : MPEG-4 Visual\nFormat profile                   : Advanced Simple@L5\nFormat settings, BVOP            : Yes\nFormat settings, QPel            : No\nFormat settings, GMC             : No warppoints\nFormat settings, Matrix          : Default (H.263)\nCodec ID                         : XVID\nCodec ID/Hint                    : XviD\nDuration                         : 1h 23mn\nBit rate                         : 1 126 Kbps\nWidth                            : 624 pixels\nHeight                           : 352 pixels\nDisplay aspect ratio             : 16:9\nFrame rate                       : 25.000 fps\nResolution                       : 8 bits\nColorimetry                      : 4:2:0\nScan type                        : Progressive\nBits/(Pixel*Frame)               : 0.205\nStream size                      : 673 MiB (90%)\nWriting library                  : XviD 1.2.1 (UTC 2008-12-04)\n\nAudio\nID                               : 1\nFormat                           : MPEG Audio\nFormat version                   : Version 1\nFormat profile                   : Layer 3\nMode                             : Joint stereo\nFormat_Settings_ModeExtension    : MS Stereo\nCodec ID                         : 55\nCodec ID/Hint                    : MP3\nDuration                         : 1h 23mn\nBit rate mode                    : Variable\nBit rate                         : 109 Kbps\nNominal bit rate                 : 128 Kbps\nChannel(s)                       : 2 channels\nSampling rate                    : 48.0 KHz\nStream size                      : 65.4 MiB (9%)\nAlignment                        : Aligned on interleaves\nInterleave, duration             : 24 ms (0.60 video frame)\nInterleave, preload duration     : 472 ms\nWriting library                  : LAME3.90.\nEncoding settings                : -m j -V 4 -q 2 -lowpass 17.6 --abr 128\n\n","torrent":{"xt":"urn:btih:316819549d86100d7eb3c2189debf18799832ba7","amp;dn":"WWE+Friday+Night+Smackdown+-+20th+August+2010+-+Xvid+%5D%5BVAMPIRE+R","amp;tr":["udp%3A%2F%2Ftracker.openbittorrent.com%3A80","udp%3A%2F%2Fopen.demonii.com%3A1337","udp%3A%2F%2Ftracker.coppersurfer.tk%3A6969","udp%3A%2F%2Fexodus.desync.com%3A6969"],"infoHash":"316819549d86100d7eb3c2189debf18799832ba7","infoHashBuffer":{"type":"Buffer","data":[49,104,25,84,157,134,16,13,126,179,194,24,157,235,241,135,153,131,43,167]},"announce":[],"urlList":[]}}